<?xml version="1.0" encoding="utf-8"?>
<!-- Generator: Adobe Illustrator 23.0.0, SVG Export Plug-In . SVG Version: 6.00 Build 0)  -->
<svg version="1.1" id="Layer_1" xmlns="http://www.w3.org/2000/svg" xmlns:xlink="http://www.w3.org/1999/xlink" x="0px" y="0px"
	 viewBox="0 0 500 120" style="enable-background:new 0 0 500 120;" xml:space="preserve">
<style type="text/css">
	.st0{fill:#E9EAED;}
	.st1{fill:#FFFFFF;}
	.st2{fill:#EEF0F3;}
	.st3{fill:#C8D1D8;}
	.st4{fill:#949CA8;}
</style>
<g>
	<rect class="st0" width="500" height="120"/>
</g>
<g>
	<rect class="st1" width="500" height="54.5"/>
</g>
<path class="st2" d="M197.1,39.7H85.3c-6,0-11-4.9-11-11l0,0c0-6,4.9-11,11-11h111.8c6,0,11,4.9,11,11l0,0
	C208.1,34.8,203.2,39.7,197.1,39.7z"/>
<circle class="st3" cx="481.3" cy="26.9" r="10.6"/>
<circle class="st3" cx="456.1" cy="26.9" r="10.6"/>
<circle class="st3" cx="430.9" cy="27.3" r="10.6"/>
<path class="st4" d="M63,36.2c0,0.2-0.2,0.3-0.3,0.3l-1.4-0.1c-3.6-0.4-7.3-0.6-10.9-0.6h-0.1c-3.7,0-7.3,0.2-11,0.6L38,36.5
	c-0.2,0-0.3-0.1-0.3-0.3l-1.4-15.8c0-0.3,0.2-0.4,0.5-0.3l7.7,3.9c0.1,0.1,0.3,0,0.4-0.1l5.2-6.4c0.1-0.2,0.4-0.2,0.5,0l5.2,6.4
	c0.1,0.1,0.3,0.1,0.4,0.1l7.7-3.9c0.2-0.1,0.5,0.1,0.5,0.3L63,36.2z M40.8,26.3l0.5,5.8c0,0.1,0.2,0.3,0.3,0.2
	c2.8-0.2,5.7-0.3,8.5-0.3c0,0,0,0,0,0c2.8,0,5.7,0.1,8.5,0.3c0.2,0,0.3-0.1,0.3-0.2l0.5-5.8c0-0.2-0.2-0.3-0.4-0.3l-4.5,2.1
	c-0.1,0-0.3,0-0.3-0.1l-3.9-4.4c-0.1-0.1-0.3-0.1-0.4,0L46.1,28c-0.1,0.1-0.2,0.1-0.3,0.1l-4.5-2C41.1,26,40.8,26.1,40.8,26.3z"/>
<path class="st3" d="M14.9,22.1H7.5c-1,0-1.8-0.8-1.8-1.8l0,0c0-1,0.8-1.8,1.8-1.8h7.4c1,0,1.8,0.8,1.8,1.8l0,0
	C16.6,21.3,15.8,22.1,14.9,22.1z"/>
<path class="st3" d="M20.3,28.7H7.5c-1,0-1.8-0.8-1.8-1.8l0,0c0-1,0.8-1.8,1.8-1.8h12.8c1,0,1.8,0.8,1.8,1.8l0,0
	C22.1,27.9,21.3,28.7,20.3,28.7z"/>
<path class="st3" d="M14.9,35.3H7.5c-1,0-1.8-0.8-1.8-1.8l0,0c0-1,0.8-1.8,1.8-1.8h7.4c1,0,1.8,0.8,1.8,1.8l0,0
	C16.6,34.5,15.8,35.3,14.9,35.3z"/>
</svg>
