<?xml version="1.0" encoding="utf-8"?>
<!-- Generator: Adobe Illustrator 23.0.0, SVG Export Plug-In . SVG Version: 6.00 Build 0)  -->
<svg version="1.1" id="Layer_1" xmlns="http://www.w3.org/2000/svg" xmlns:xlink="http://www.w3.org/1999/xlink" x="0px" y="0px"
	 viewBox="0 0 500 188.1" style="enable-background:new 0 0 500 188.1;" xml:space="preserve">
<style type="text/css">
	.st0{fill:#E9EAED;}
	.st1{fill:#FFFFFF;}
	.st2{fill:#EEF0F3;}
	.st3{fill:#949CA8;}
	.st4{opacity:0.57;fill:#EEF0F3;enable-background:new    ;}
</style>
<g>
	<rect class="st0" width="500" height="188.1"/>
</g>
<g>
	<rect class="st1" width="100" height="188.1"/>
</g>
<circle class="st2" cx="19.4" cy="174.8" r="6.7"/>
<circle class="st2" cx="38.1" cy="174.8" r="6.7"/>
<circle class="st2" cx="56.7" cy="174.8" r="6.7"/>
<path class="st3" d="M42.8,35.1c0,0.2-0.2,0.3-0.3,0.3l-1.4-0.1c-3.6-0.4-7.3-0.6-10.9-0.6H30c-3.7,0-7.3,0.2-10.9,0.6l-1.3,0.1
	c-0.2,0-0.3-0.1-0.4-0.3l-1.4-15.8c0-0.3,0.2-0.4,0.5-0.3l7.7,3.9c0.1,0.1,0.3,0,0.4-0.1l5.2-6.4c0.1-0.2,0.4-0.2,0.5,0l5.2,6.4
	c0.1,0.1,0.3,0.1,0.4,0.1l7.7-3.9c0.2-0.1,0.5,0.1,0.5,0.3L42.8,35.1z M20.7,25.2l0.5,5.8c0,0.1,0.1,0.3,0.3,0.2
	c2.8-0.2,5.7-0.3,8.5-0.3c0,0,0,0,0,0c2.8,0,5.7,0.1,8.5,0.3c0.2,0,0.3-0.1,0.3-0.2l0.5-5.8c0-0.2-0.2-0.3-0.4-0.3L34.5,27
	c-0.1,0-0.3,0-0.3-0.1l-3.9-4.4c-0.1-0.1-0.3-0.1-0.4,0l-3.9,4.4C25.8,27,25.7,27,25.5,27l-4.5-2C20.9,24.8,20.7,25,20.7,25.2z"/>
<path class="st4" d="M286.9,157.4H116.4c-1.6,0-2.9-1.5-2.9-3.4V19.7c0-1.9,1.3-3.4,2.9-3.4h170.4c1.6,0,2.9,1.5,2.9,3.4V154
	C289.8,155.8,288.5,157.4,286.9,157.4z"/>
<path class="st4" d="M481.6,157.4H311.2c-1.6,0-2.9-1.5-2.9-3.4V19.7c0-1.9,1.3-3.4,2.9-3.4h170.4c1.6,0,2.9,1.5,2.9,3.4V154
	C484.6,155.8,483.2,157.4,481.6,157.4z"/>
<path class="st2" d="M63.8,79.4H19.5c-1.9,0-3.4-1.5-3.4-3.4v0c0-1.9,1.5-3.4,3.4-3.4h44.4c1.9,0,3.4,1.5,3.4,3.4v0
	C67.2,77.8,65.7,79.4,63.8,79.4z"/>
<path class="st2" d="M63.8,90.2H19.5c-1.9,0-3.4-1.5-3.4-3.4v0c0-1.9,1.5-3.4,3.4-3.4h44.4c1.9,0,3.4,1.5,3.4,3.4v0
	C67.2,88.7,65.7,90.2,63.8,90.2z"/>
<path class="st2" d="M63.8,101.1H19.5c-1.9,0-3.4-1.5-3.4-3.4v0c0-1.9,1.5-3.4,3.4-3.4h44.4c1.9,0,3.4,1.5,3.4,3.4v0
	C67.2,99.6,65.7,101.1,63.8,101.1z"/>
<path class="st2" d="M63.8,112H19.5c-1.9,0-3.4-1.5-3.4-3.4v0c0-1.9,1.5-3.4,3.4-3.4h44.4c1.9,0,3.4,1.5,3.4,3.4v0
	C67.2,110.5,65.7,112,63.8,112z"/>
<path class="st2" d="M63.8,122.9H19.5c-1.9,0-3.4-1.5-3.4-3.4v0c0-1.9,1.5-3.4,3.4-3.4h44.4c1.9,0,3.4,1.5,3.4,3.4v0
	C67.2,121.4,65.7,122.9,63.8,122.9z"/>
</svg>
