<?xml version="1.0" encoding="utf-8"?>
<!-- Generator: Adobe Illustrator 23.0.0, SVG Export Plug-In . SVG Version: 6.00 Build 0)  -->
<svg version="1.1" id="Layer_1" xmlns="http://www.w3.org/2000/svg" xmlns:xlink="http://www.w3.org/1999/xlink" x="0px" y="0px"
	 viewBox="0 0 500 188.1" style="enable-background:new 0 0 500 188.1;" xml:space="preserve">
<style type="text/css">
	.st0{fill:#E9EAED;}
	.st1{opacity:0.57;fill:#EEF0F3;enable-background:new    ;}
	.st2{fill:#A8B6C0;}
	.st3{fill:#FFFFFF;}
	.st4{opacity:0.54;fill:#FFFFFF;enable-background:new    ;}
	.st5{fill:#DBDBDB;}
	.st6{fill:#949CA8;}
	.st7{fill:#EEF0F3;}
	.st8{fill:none;stroke:#EEF0F3;stroke-miterlimit:10;}
	.st9{fill:#C8D1D8;}
</style>
<g>
	<rect y="39.5" class="st0" width="500" height="148.6"/>
</g>
<path class="st1" d="M152.2,197.5H22.8c-1.2,0-2.2-0.4-2.2-1v-39.7c0-0.6,1-1,2.2-1h129.4c1.2,0,2.2,0.4,2.2,1v39.7
	C154.4,197,153.4,197.5,152.2,197.5z"/>
<path class="st1" d="M314.8,197.5H185.3c-1.2,0-2.2-0.4-2.2-1v-39.7c0-0.6,1-1,2.2-1h129.4c1.2,0,2.2,0.4,2.2,1v39.7
	C317,197,316,197.5,314.8,197.5z"/>
<path class="st1" d="M477.3,197.5H347.8c-1.2,0-2.2-0.4-2.2-1v-39.7c0-0.6,1-1,2.2-1h129.4c1.2,0,2.2,0.4,2.2,1v39.7
	C479.5,197,478.5,197.5,477.3,197.5z"/>
<g>
	<path class="st2" d="M2.7,103.1c-2.9,0-5.3-1.2-5.3-2.6V3c0-1.5,2.4-2.6,5.3-2.6h493c2.9,0,5.3,1.2,5.3,2.6v97.5
		c0,1.4-2.4,2.6-5.3,2.6L2.7,103.1L2.7,103.1z"/>
	<path class="st0" d="M495.7,0.8c2.5,0,4.6,1,4.6,2.3v97.5c0,1.2-2.1,2.3-4.6,2.3H2.7c-2.5,0-4.6-1-4.6-2.3V3c0-1.2,2.1-2.3,4.6-2.3
		H495.7 M495.7,0H2.7c-3.4,0-6.1,1.3-6.1,3v97.5c0,1.7,2.7,3,6.1,3h493c3.4,0,6.1-1.3,6.1-3V3C501.8,1.3,499,0,495.7,0L495.7,0z"/>
</g>
<path class="st3" d="M490.3,65.3L490.3,65.3c-3.2,0-5.8-2.6-5.8-5.8V44c0-3.2,2.6-5.8,5.8-5.8l0,0c3.2,0,5.8,2.6,5.8,5.8v15.5
	C496.1,62.7,493.5,65.3,490.3,65.3z"/>
<path class="st3" d="M490.3,99L490.3,99c-3.2,0-5.8-2.6-5.8-5.8v-8c0-3.2,2.6-5.8,5.8-5.8l0,0c3.2,0,5.8,2.6,5.8,5.8v8
	C496.1,96.4,493.5,99,490.3,99z"/>
<path class="st4" d="M270.6,56.9h-41.2c-1.8,0-3.2-1.5-3.2-3.2l0,0c0-1.8,1.5-3.2,3.2-3.2h41.2c1.8,0,3.2,1.5,3.2,3.2l0,0
	C273.8,55.4,272.4,56.9,270.6,56.9z"/>
<path class="st4" d="M285.4,46.6h-70.8c-1.8,0-3.2-1.5-3.2-3.2l0,0c0-1.8,1.5-3.2,3.2-3.2h70.8c1.8,0,3.2,1.5,3.2,3.2l0,0
	C288.6,45.1,287.2,46.6,285.4,46.6z"/>
<g>
	<rect x="0" y="102.6" class="st3" width="500" height="36.1"/>
</g>
<path class="st5" d="M232.9,125h-12.5c-2.5,0-4.6-2.1-4.6-4.6v0c0-2.5,2.1-4.6,4.6-4.6h12.5c2.5,0,4.6,2.1,4.6,4.6v0
	C237.5,122.9,235.4,125,232.9,125z"/>
<path class="st5" d="M256.7,125h-12.5c-2.5,0-4.6-2.1-4.6-4.6v0c0-2.5,2.1-4.6,4.6-4.6h12.5c2.5,0,4.6,2.1,4.6,4.6v0
	C261.2,122.9,259.2,125,256.7,125z"/>
<path class="st5" d="M280.6,125h-12.5c-2.5,0-4.6-2.1-4.6-4.6v0c0-2.5,2.1-4.6,4.6-4.6h12.5c2.5,0,4.6,2.1,4.6,4.6v0
	C285.2,122.9,283.2,125,280.6,125z"/>
<path class="st6" d="M53.6,129.7c0,0.2-0.2,0.3-0.3,0.3l-1.4-0.1c-3.6-0.4-7.3-0.6-10.9-0.6l-0.1,0c-3.7,0-7.3,0.2-10.9,0.6
	l-1.3,0.1c-0.2,0-0.3-0.1-0.3-0.3l-1.4-15.8c0-0.2,0.2-0.4,0.5-0.3l7.7,3.9c0.1,0.1,0.3,0,0.4-0.1l5.2-6.4c0.1-0.2,0.4-0.2,0.5,0
	l5.2,6.4c0.1,0.1,0.3,0.2,0.4,0.1l7.7-3.9c0.2-0.1,0.5,0.1,0.5,0.3L53.6,129.7z M31.5,119.8l0.5,5.8c0,0.1,0.2,0.2,0.3,0.2
	c2.8-0.2,5.7-0.3,8.5-0.3c0,0,0,0,0,0c2.8,0,5.7,0.1,8.5,0.3c0.2,0,0.3-0.1,0.3-0.2l0.5-5.8c0-0.2-0.2-0.3-0.4-0.3l-4.5,2.1
	c-0.1,0.1-0.3,0-0.3-0.1l-3.9-4.4c-0.1-0.1-0.3-0.1-0.4,0l-3.9,4.4c-0.1,0.1-0.2,0.1-0.3,0.1l-4.5-2
	C31.7,119.4,31.5,119.6,31.5,119.8z"/>
<rect x="358" y="102.8" class="st7" width="84.8" height="35.6"/>
<line class="st8" x1="471.4" y1="103.2" x2="471.4" y2="139.3"/>
<circle class="st9" cx="457.1" cy="120.4" r="6.5"/>
<path class="st9" d="M485.5,122.2h-7.4c-1,0-1.8-0.8-1.8-1.8l0,0c0-1,0.8-1.8,1.8-1.8h7.4c1,0,1.8,0.8,1.8,1.8l0,0
	C487.2,121.4,486.4,122.2,485.5,122.2z"/>
<path class="st9" d="M490.9,128.2h-12.8c-1,0-1.8-0.8-1.8-1.8l0,0c0-1,0.8-1.8,1.8-1.8h12.8c1,0,1.8,0.8,1.8,1.8l0,0
	C492.7,127.4,491.9,128.2,490.9,128.2z"/>
<path class="st9" d="M490.9,116.2h-12.8c-1,0-1.8-0.8-1.8-1.8l0,0c0-1,0.8-1.8,1.8-1.8h12.8c1,0,1.8,0.8,1.8,1.8l0,0
	C492.7,115.4,491.9,116.2,490.9,116.2z"/>
</svg>
