<?xml version="1.0" encoding="utf-8"?>
<!-- Generator: Adobe Illustrator 23.0.0, SVG Export Plug-In . SVG Version: 6.00 Build 0)  -->
<svg version="1.1" id="Layer_1" xmlns="http://www.w3.org/2000/svg" xmlns:xlink="http://www.w3.org/1999/xlink" x="0px" y="0px"
	 viewBox="0 0 250 250" style="enable-background:new 0 0 250 250;" xml:space="preserve">
<style type="text/css">
	.st0{fill:#E9EAED;}
	.st1{fill:#A8B6C0;}
	.st2{fill:#FFFFFF;}
	.st3{opacity:0.8;fill:#FFFFFF;}
	.st4{opacity:0.6;fill:#FFFFFF;}
</style>
<rect class="st0" width="250" height="250"/>
<path class="st1" d="M228.2,183.5H21.8c-1.9,0-3.4-1.5-3.4-3.4V55.9c0-1.9,1.5-3.4,3.4-3.4h206.3c1.9,0,3.4,1.5,3.4,3.4v124.2
	C231.6,182,230.1,183.5,228.2,183.5z"/>
<circle class="st2" cx="28.4" cy="197.2" r="10"/>
<path class="st2" d="M137.8,127.3c0,0.2-0.2,0.3-0.4,0.3l-1.4-0.1c-3.6-0.4-7.3-0.6-10.9-0.6H125c-3.7,0-7.3,0.2-10.9,0.6l-1.3,0.1
	c-0.2,0-0.3-0.1-0.3-0.3l-1.4-15.8c0-0.3,0.2-0.4,0.5-0.3l7.7,3.9c0.1,0.1,0.3,0,0.4-0.1l5.2-6.4c0.1-0.2,0.4-0.2,0.5,0l5.2,6.4
	c0.1,0.1,0.3,0.2,0.4,0.1l7.7-3.9c0.2-0.1,0.5,0.1,0.5,0.3L137.8,127.3z M115.6,117.3l0.6,5.8c0,0.1,0.2,0.3,0.3,0.2
	c2.8-0.2,5.7-0.3,8.5-0.3c0,0,0,0,0.1,0c2.8,0,5.7,0.1,8.5,0.3c0.2,0,0.3-0.1,0.3-0.2l0.5-5.8c0-0.2-0.2-0.3-0.4-0.3l-4.5,2.1
	c-0.1,0.1-0.3,0-0.4-0.1l-3.9-4.4c-0.1-0.1-0.3-0.1-0.4,0l-3.9,4.4c-0.1,0.1-0.2,0.1-0.3,0.1l-4.5-2.1
	C115.8,117,115.6,117.1,115.6,117.3z"/>
<path class="st2" d="M227,196.1H50.6c-1.9,0-3.4-1.5-3.4-3.4v-1.1c0-1.9,1.5-3.4,3.4-3.4H227c1.9,0,3.4,1.5,3.4,3.4v1.1
	C230.4,194.6,228.9,196.1,227,196.1z"/>
<path class="st3" d="M77.8,205.1H50.6c-1.9,0-3.4-1.5-3.4-3.4l0,0c0-1.9,1.5-3.4,3.4-3.4h27.2c1.9,0,3.4,1.5,3.4,3.4l0,0
	C81.2,203.5,79.7,205.1,77.8,205.1z"/>
<path class="st4" d="M86.1,213.4H49.6c-1.3,0-2.3-1.1-2.3-2.3v-1.5c0-1.3,1.1-2.3,2.3-2.3h36.5c1.3,0,2.3,1.1,2.3,2.3v1.5
	C88.5,212.3,87.4,213.4,86.1,213.4z"/>
<path class="st4" d="M129.3,213.4H92.7c-1.3,0-2.3-1.1-2.3-2.3v-1.5c0-1.3,1.1-2.3,2.3-2.3h36.5c1.3,0,2.3,1.1,2.3,2.3v1.5
	C131.6,212.3,130.6,213.4,129.3,213.4z"/>
</svg>
